<svg width="4" height="7" viewBox="0 0 4 7" fill="none" xmlns="http://www.w3.org/2000/svg">
<path d="M0.535458 6.53809C0.447263 6.53809 0.370666 6.5074 0.305666 6.44601C0.240805 6.38462 0.208374 6.30372 0.208374 6.2033L0.208374 0.796218C0.208374 0.695801 0.242263 0.614899 0.310041 0.55351C0.37768 0.492121 0.456638 0.461426 0.546916 0.461426C0.558443 0.461426 0.637888 0.499552 0.785249 0.575802L3.35337 3.14163C3.3999 3.18802 3.43705 3.24344 3.46483 3.30788C3.49261 3.37233 3.5065 3.43629 3.5065 3.49976C3.5065 3.56323 3.49261 3.62719 3.46483 3.69163C3.43705 3.75608 3.3999 3.8115 3.35337 3.85788L0.785874 6.42393C0.750457 6.4592 0.710874 6.48705 0.667124 6.50747C0.623513 6.52788 0.579624 6.53809 0.535458 6.53809Z" fill="#0069E8"/>
</svg>
