<svg width="10" height="18" viewBox="0 0 10 18" fill="none" xmlns="http://www.w3.org/2000/svg">
<path d="M1.81927 8.99997L9.53453 16.7155C9.68203 16.8628 9.75486 17.0391 9.75303 17.2442C9.75103 17.4494 9.67628 17.6256 9.52878 17.773C9.38144 17.9205 9.20519 17.9942 9.00003 17.9942C8.79486 17.9942 8.61861 17.9205 8.47127 17.773L0.828775 10.1365C0.667275 9.97497 0.549359 9.79489 0.475025 9.59622C0.400692 9.39739 0.363525 9.19864 0.363525 8.99997C0.363525 8.8013 0.400692 8.60255 0.475025 8.40372C0.549359 8.20505 0.667275 8.02497 0.828775 7.86347L8.47127 0.221219C8.61861 0.0737193 8.79586 0.000969821 9.00303 0.00296982C9.21002 0.00480315 9.38719 0.0794704 9.53453 0.22697C9.68203 0.374304 9.75577 0.550553 9.75577 0.755719C9.75577 0.960886 9.68203 1.13714 9.53453 1.28447L1.81927 8.99997Z" fill="black"/>
</svg>
