<svg width="16" height="12" viewBox="0 0 16 12" fill="none" xmlns="http://www.w3.org/2000/svg">
<path d="M12.6115 6.74984H1.25C1.03717 6.74984 0.859 6.678 0.7155 6.53434C0.571833 6.39084 0.5 6.21267 0.5 5.99984C0.5 5.787 0.571833 5.60884 0.7155 5.46534C0.859 5.32167 1.03717 5.24984 1.25 5.24984H12.6115L9.31925 1.95759C9.17058 1.80875 9.09717 1.63467 9.099 1.43534C9.101 1.236 9.17442 1.05875 9.31925 0.903587C9.47442 0.748587 9.65258 0.668502 9.85375 0.663336C10.0551 0.658169 10.2333 0.733169 10.3885 0.888336L14.8673 5.36709C14.9609 5.46075 15.0269 5.5595 15.0652 5.66334C15.1037 5.76717 15.123 5.87934 15.123 5.99984C15.123 6.12034 15.1037 6.2325 15.0652 6.33634C15.0269 6.44017 14.9609 6.53892 14.8673 6.63259L10.3885 11.1113C10.2397 11.26 10.0631 11.3334 9.85875 11.3316C9.65425 11.3296 9.47442 11.2511 9.31925 11.0961C9.17442 10.9409 9.09942 10.7653 9.09425 10.5691C9.08908 10.3729 9.16408 10.1973 9.31925 10.0421L12.6115 6.74984Z" fill="black"/>
</svg>
