<svg width="75" height="30" viewBox="0 0 75 30" fill="none" xmlns="http://www.w3.org/2000/svg">
<path d="M24.4023 29.1699C24.0638 29.1699 23.7383 29.1439 23.4258 29.0918C22.4622 28.9486 21.7591 28.4408 21.3164 27.5684C20.8607 26.5788 20.431 24.3457 20.0273 20.8691C19.7669 18.7467 19.6367 17.6139 19.6367 17.4707C19.4935 17.4707 19.2005 17.5163 18.7578 17.6074C18.5365 17.6595 18.3607 17.6921 18.2305 17.7051C16.5638 18.0306 15.0859 18.4603 13.7969 18.9941C12.6641 19.4629 11.974 19.9967 11.7266 20.5957C11.6745 20.7129 11.6484 20.8301 11.6484 20.9473C11.6484 21.4421 12.0977 21.9759 12.9961 22.5488L14.6172 23.5449C15.8281 24.1569 16.4336 24.7428 16.4336 25.3027C16.4336 25.8757 15.8867 26.5527 14.793 27.334C14.0247 27.8678 13.0742 28.278 11.9414 28.5645C10.6523 28.9681 9.23307 29.1699 7.68359 29.1699C6.68099 29.1699 5.76302 29.0853 4.92969 28.916C3.90104 28.6816 2.98958 28.291 2.19531 27.7441C1.41406 27.028 0.945312 26.3053 0.789062 25.5762C0.645833 25.0814 0.574219 24.541 0.574219 23.9551C0.574219 23.4212 0.632812 22.8483 0.75 22.2363C0.997396 20.9473 1.42057 19.8861 2.01953 19.0527C2.33203 18.623 2.56641 18.4082 2.72266 18.4082C2.85286 18.4082 2.91797 18.5124 2.91797 18.7207C2.90495 18.929 2.85286 19.2806 2.76172 19.7754C2.57943 20.6608 2.48828 21.403 2.48828 22.002C2.48828 23.4733 2.85938 24.4759 3.60156 25.0098C4.42188 25.6217 5.77604 25.9277 7.66406 25.9277C9.10938 25.9277 10.5742 25.6608 12.0586 25.127C11.9023 25.0228 11.7461 24.9447 11.5898 24.8926C11.0169 24.5931 10.6068 24.2806 10.3594 23.9551C9.60417 23.252 9.22656 22.3145 9.22656 21.1426C9.22656 20.4785 9.35677 19.8145 9.61719 19.1504C9.96875 18.291 10.4766 17.5944 11.1406 17.0605C11.8047 16.5267 12.5924 16.1035 13.5039 15.791C14.4284 15.4785 15.5221 15.1855 16.7852 14.9121C17.0195 14.847 17.3646 14.7624 17.8203 14.6582C18.4974 14.4889 18.9857 14.3587 19.2852 14.2676C19.1419 12.5618 18.9076 9.56706 18.582 5.2832C18.543 5.07487 18.5234 4.87956 18.5234 4.69727C18.5234 4.26758 18.6211 3.88346 18.8164 3.54492C18.9987 3.27148 19.207 3.13477 19.4414 3.13477C20.0924 3.13477 20.5091 3.94857 20.6914 5.57617C20.7305 6.07096 20.8021 6.85872 20.9062 7.93945C21.2969 12.015 21.6094 15.4069 21.8438 18.1152C22.1432 21.123 22.4362 23.1283 22.7227 24.1309C22.944 25.2767 23.4128 25.8496 24.1289 25.8496C24.2201 25.8496 24.3112 25.8431 24.4023 25.8301C25.3659 26.0254 25.8477 26.5527 25.8477 27.4121C25.7435 28.4277 25.2617 29.0137 24.4023 29.1699Z" fill="white"/>
<path d="M27.5469 8.50586C27.2995 8.50586 27.013 8.38216 26.6875 8.13477C26.375 7.88737 26.1016 7.58789 25.8672 7.23633C25.6328 6.88477 25.5156 6.57227 25.5156 6.29883C25.5156 5.80404 25.7044 5.19857 26.082 4.48242C26.4727 3.75326 26.8828 3.38867 27.3125 3.38867C27.7422 3.38867 28.1589 3.71419 28.5625 4.36523C28.9792 5.00326 29.1875 5.52409 29.1875 5.92773C29.1875 6.26628 29.0052 6.7806 28.6406 7.4707C28.276 8.16081 27.9115 8.50586 27.5469 8.50586Z" fill="white"/>
<path d="M24.5195 29.1699L24.5 29.1504C24.2135 29.1113 23.9661 28.9421 23.7578 28.6426C23.5495 28.3301 23.4453 27.9395 23.4453 27.4707C23.4453 27.015 23.556 26.6243 23.7773 26.2988C23.9857 25.9733 24.2396 25.8105 24.5391 25.8105V25.8301H24.6172V25.8496C25.3854 25.8496 26.1732 25.6022 26.9805 25.1074C27.4232 24.873 27.8984 24.4694 28.4062 23.8965C28.9271 23.3105 29.1875 22.8092 29.1875 22.3926C29.1875 22.054 29.1289 21.7155 29.0117 21.377C28.8945 21.0384 28.6406 20.485 28.25 19.7168C28.0156 19.2741 27.8984 18.89 27.8984 18.5645C27.8984 18.3431 27.957 18.1478 28.0742 17.9785C28.2174 17.7702 28.3997 17.666 28.6211 17.666C28.8424 17.666 29.0898 17.7572 29.3633 17.9395C29.9622 18.3171 30.4831 19.1243 30.9258 20.3613C31.1211 21.1296 31.2188 21.8457 31.2188 22.5098C31.2188 23.6686 30.8021 24.8079 29.9688 25.9277C29.1484 27.0345 28.1914 27.8678 27.0977 28.4277C26.1081 28.9225 25.2487 29.1699 24.5195 29.1699Z" fill="white"/>
<path d="M43.1328 29.1699C42.7943 29.1699 42.4622 29.1504 42.1367 29.1113C41.3815 28.9811 40.7174 28.4928 40.1445 27.6465C39.5716 26.8001 39.1549 25.2181 38.8945 22.9004C38.4779 20.4655 37.8659 14.3001 37.0586 4.4043V4.20898C37.0586 3.72721 37.1758 3.29753 37.4102 2.91992C37.6576 2.5293 37.9115 2.33398 38.1719 2.33398L38.2891 2.35352C38.4844 2.4056 38.6536 2.58138 38.7969 2.88086C38.9531 3.16732 39.1094 3.88997 39.2656 5.04883L40.6133 19.2285C40.9648 22.3535 41.2773 24.209 41.5508 24.7949C41.7721 25.3548 42.1107 25.6803 42.5664 25.7715C42.7487 25.8105 42.9375 25.8301 43.1328 25.8301C43.7839 26.39 44.1094 26.9499 44.1094 27.5098C44.1094 28.0697 43.7839 28.623 43.1328 29.1699Z" fill="white"/>
<path d="M43.1328 29.1895C42.4688 28.7467 42.1367 28.2389 42.1367 27.666C42.1367 27.1061 42.4688 26.4811 43.1328 25.791L44.5586 25.6934C45.0534 25.6543 45.5417 25.6022 46.0234 25.5371C46.5182 25.459 46.8438 25.4004 47 25.3613L47.8594 24.0723C47.8203 23.8639 47.8008 23.6686 47.8008 23.4863L47.8398 22.6074C47.8529 21.7741 47.9896 21.0254 48.25 20.3613C48.5234 19.6842 48.9076 19.0723 49.4023 18.5254C49.5326 18.3301 49.6888 18.1608 49.8711 18.0176C50.0664 17.8743 50.2747 17.7181 50.4961 17.5488C51.082 17.0931 51.9219 16.7741 53.0156 16.5918C53.6536 16.9173 53.9727 17.5618 53.9727 18.5254C53.9727 19.2936 53.6536 19.7819 53.0156 19.9902C52.5208 20.0293 52.013 20.14 51.4922 20.3223C50.9844 20.4915 50.5872 20.7064 50.3008 20.9668C50.0273 21.2142 49.8516 21.416 49.7734 21.5723C49.6953 21.7285 49.6497 21.9043 49.6367 22.0996V22.1777C49.6367 22.36 49.7214 22.5879 49.8906 22.8613C50.0729 23.1217 50.6719 23.4603 51.6875 23.877C51.8958 23.9421 52.0911 24.0397 52.2734 24.1699C52.4688 24.3001 52.6315 24.4303 52.7617 24.5605C52.9961 24.9512 53.1133 25.2572 53.1133 25.4785C53.1133 26.1035 52.7357 26.7025 51.9805 27.2754C51.6549 27.4447 51.3164 27.6139 50.9648 27.7832C50.6133 27.9525 50.2292 28.1152 49.8125 28.2715C49.474 28.3496 49.1224 28.4408 48.7578 28.5449C48.4062 28.6361 48.0026 28.7207 47.5469 28.7988C46.5964 28.9551 45.125 29.0853 43.1328 29.1895Z" fill="white"/>
<path d="M49.9102 9.3457C49.819 9.3457 49.7604 9.28711 49.7344 9.16992C49.7083 9.03971 49.6953 8.81836 49.6953 8.50586C49.7734 7.38607 50.0013 6.25977 50.3789 5.12695C50.7565 3.99414 51.2578 3.0306 51.8828 2.23633C52.5078 1.44206 53.2044 0.966797 53.9727 0.810547C54.3893 0.810547 54.7734 0.966797 55.125 1.2793C55.4766 1.5918 55.763 2.06055 55.9844 2.68555C56.1797 3.50586 56.2773 4.10482 56.2773 4.48242L56.3164 5.43945C56.3164 5.64779 56.2773 5.83008 56.1992 5.98633C56.1341 6.14258 56.043 6.23372 55.9258 6.25977C55.8346 6.25977 55.7695 6.22721 55.7305 6.16211C55.6914 6.09701 55.6198 5.95378 55.5156 5.73242C55.4115 5.31576 55.2552 4.9707 55.0469 4.69727C54.8385 4.42383 54.513 4.28711 54.0703 4.28711C53.862 4.28711 53.5625 4.35872 53.1719 4.50195C52.638 5.04883 52.1562 5.73242 51.7266 6.55273C51.3099 7.37305 50.9714 8.02409 50.7109 8.50586C50.4635 9.06575 50.1966 9.3457 49.9102 9.3457Z" fill="white"/>
<path d="M58.4648 22.2949C57.4622 22.2949 56.6875 21.9499 56.1406 21.2598C55.8932 20.9993 55.6263 20.6152 55.3398 20.1074C55.1055 19.7038 54.8971 19.4173 54.7148 19.248C54.5326 19.0918 54.2721 19.0137 53.9336 19.0137C53.6341 19.0137 53.3216 19.0658 52.9961 19.1699C52.3581 18.61 52.0391 18.0501 52.0391 17.4902C52.0391 16.9434 52.3581 16.39 52.9961 15.8301C53.3607 15.752 53.7383 15.7129 54.1289 15.7129C55.3398 15.7129 56.2253 16.3053 56.7852 17.4902C56.9414 17.8158 57.0846 18.0632 57.2148 18.2324C57.4753 18.6882 57.944 18.916 58.6211 18.916C58.7383 18.916 58.862 18.9095 58.9922 18.8965L59.0117 18.916C59.6628 19.502 59.9883 20.0749 59.9883 20.6348C59.9883 21.1947 59.6628 21.735 59.0117 22.2559C58.8164 22.2819 58.6341 22.2949 58.4648 22.2949Z" fill="white"/>
<path d="M59.1289 22.9199C58.7122 22.9199 58.3607 22.7572 58.0742 22.4316C57.7747 22.1061 57.625 21.709 57.625 21.2402C57.625 20.7845 57.7682 20.4004 58.0547 20.0879C58.3281 19.7754 58.6471 19.6061 59.0117 19.5801V19.541C60.9909 19.3717 62.9701 18.9681 64.9492 18.3301C64.4544 17.3014 63.9336 15.7975 63.3867 13.8184C63.2565 13.1022 63.1914 12.4056 63.1914 11.7285C63.1914 10.6348 63.4518 9.77539 63.9727 9.15039C64.832 8.25195 65.8672 7.80273 67.0781 7.80273C67.3516 7.80273 67.6185 7.82878 67.8789 7.88086C69.2852 8.14128 70.2878 8.92253 70.8867 10.2246C70.9648 10.5371 71.0039 10.8171 71.0039 11.0645C71.0039 11.5072 70.8281 11.7285 70.4766 11.7285C70.1641 11.7285 69.6823 11.6374 69.0312 11.4551C68.1589 11.1947 67.4492 11.0645 66.9023 11.0645C66.3815 11.0645 65.9648 11.3053 65.6523 11.7871C65.5352 12.0866 65.4766 12.3861 65.4766 12.6855C65.4766 13.1803 65.6589 13.9421 66.0234 14.9707C66.1016 15.166 66.2122 15.5111 66.3555 16.0059C66.5117 16.4876 66.681 16.8392 66.8633 17.0605C67.0326 17.36 67.3125 17.5423 67.7031 17.6074C68.5755 17.6074 70.1966 17.2689 72.5664 16.5918C72.9961 16.4616 73.276 16.3965 73.4062 16.3965C73.6406 16.3184 73.7969 16.2793 73.875 16.2793C74.2786 16.2793 74.4805 16.5202 74.4805 17.002L74.4219 17.2363C74.4219 17.4316 74.3633 17.7116 74.2461 18.0762C74.168 18.3887 74.0247 18.7728 73.8164 19.2285C73.6081 19.4368 72.9896 19.6973 71.9609 20.0098C71.6354 20.0879 71.1927 20.2051 70.6328 20.3613C69.9688 20.4655 68.5495 20.8236 66.375 21.4355C63.7448 22.1647 61.4792 22.6335 59.5781 22.8418C59.4349 22.8939 59.2852 22.9199 59.1289 22.9199Z" fill="white"/>
</svg>
