<svg width="83" height="34" viewBox="0 0 83 34" fill="none" xmlns="http://www.w3.org/2000/svg">
<path d="M20.6737 22.1734H17.8091C16.5707 22.1734 15.5811 22.3586 14.8403 22.7289C14.0996 23.0993 13.7292 23.5623 13.7292 24.1178C13.7292 24.5229 14.1517 24.8065 14.9966 24.9685L16.7501 25.3158C18.4515 25.663 19.3022 26.5715 19.3022 28.0414C19.3022 29.6734 17.9538 31.0854 15.257 32.2776C12.8033 33.3539 10.257 33.8921 7.61812 33.8921C5.43062 33.8921 3.72923 33.3539 2.51396 32.2776C1.29868 31.2012 0.69104 29.7023 0.69104 27.781C0.69104 25.8134 1.42599 23.4755 2.8959 20.7671L3.27785 21.0623C2.25933 23.2382 1.75007 24.9222 1.75007 26.1144C1.75007 27.6306 2.3172 28.8285 3.45146 29.7081C4.58572 30.5993 6.12507 31.0449 8.06951 31.0449C9.92136 31.0449 12.0799 30.6919 14.5452 29.9859C17.0684 29.2683 18.3299 28.6201 18.3299 28.0414C18.3299 27.4164 17.7744 27.0576 16.6633 26.9651L13.7292 26.722C12.4561 26.6063 11.8195 26.1549 11.8195 25.3678C11.8195 24.0484 12.4503 22.781 13.7119 21.5658C15.0197 20.2926 16.4723 19.656 18.0695 19.656H20.6737V22.1734Z" fill="white"/>
<path d="M27.4627 22.1734H24.5634C23.1282 22.1734 22.1213 20.8771 21.5425 18.2845C21.3342 19.2452 21.0159 20.0901 20.5877 20.8192C20.0553 21.722 19.4708 22.1734 18.8342 22.1734H17.3759V19.656H18.4175C20.2694 19.656 21.1953 17.8563 21.1953 14.2567C21.1953 12.8447 21.0912 10.5588 20.8828 7.39909C20.6745 4.23937 20.5703 2.54955 20.5703 2.32964C20.5703 1.20696 20.7671 0.466217 21.1606 0.107422C21.4037 0.292607 21.5599 0.500941 21.6294 0.732422C21.7798 1.16066 21.8898 1.98821 21.9592 3.21506L22.6016 14.7776C22.7868 18.0299 23.6432 19.656 25.171 19.656H27.4627V22.1734Z" fill="white"/>
<path d="M31.4948 16.6005C31.4948 20.3158 30.1522 22.1734 27.467 22.1734H26.0087V19.656H27.467C28.1846 19.656 28.8617 19.5114 29.4983 19.222C30.2043 18.9095 30.5573 18.5276 30.5573 18.0762C30.5573 17.8563 30.4879 17.6364 30.349 17.4164L29.4462 15.9581C29.261 15.6456 29.1684 15.3505 29.1684 15.0727C29.1684 14.7833 29.2494 14.5114 29.4115 14.2567L30.5573 12.5206C31.1823 13.8864 31.4948 15.2463 31.4948 16.6005ZM31.5643 5.73242L30.1754 7.91992L28.0399 6.37478L29.4462 4.222L31.5643 5.73242Z" fill="white"/>
<path d="M44.0092 22.1734H41.0925C38.7546 22.1734 37.4698 20.8597 37.2383 18.2324C37.111 16.8435 36.8159 14.1583 36.3529 10.1769C35.9363 6.71622 35.7279 4.8065 35.7279 4.4477C35.7279 3.89214 36.2256 3.01251 37.221 1.80881L38.5404 16.8609C38.714 18.7243 39.5647 19.656 41.0925 19.656H44.0092V22.1734Z" fill="white"/>
<path d="M60.4854 22.1734H57.5688C56.3535 22.1734 55.1671 21.6178 54.0097 20.5067C53.9171 21.9882 53.3731 22.7289 52.3778 22.7289C51.7181 22.7289 50.8269 22.3239 49.7042 21.5137C49.6116 21.4442 48.7898 20.7729 47.2389 19.4998C46.313 20.634 45.7748 21.2764 45.6243 21.4269C45.1035 21.9245 44.5711 22.1734 44.0271 22.1734H42.5688V19.656H44.0271C45.0456 19.656 46.284 18.8632 47.7424 17.2776C49.2007 15.6919 50.1787 14.8991 50.6764 14.8991C51.012 14.8991 51.4982 15.2058 52.1347 15.8192L53.8535 17.5033C55.5896 18.9384 56.828 19.656 57.5688 19.656H60.4854V22.1734ZM51.9611 19.0137C51.9611 18.6317 51.8049 18.0704 51.4924 17.3296C51.1914 16.5889 50.9194 16.2185 50.6764 16.2185C50.0861 16.2185 49.4495 16.7972 48.7667 17.9546C50.0282 19.1699 50.8963 19.7776 51.3708 19.7776C51.7644 19.7776 51.9611 19.5229 51.9611 19.0137Z" fill="white"/>
<path d="M64.4383 3.23242L63.0842 5.3852L61.0355 4.08312L62.3203 1.77409L64.4383 3.23242ZM67.0425 6.93034L65.7751 9.222L63.5529 7.69423L62.2855 9.69075L60.2369 8.21506L61.5217 5.99284L63.6744 7.45117L64.8724 5.472L67.0425 6.93034ZM68.3272 22.1734H65.4106C65.1096 22.1734 64.7508 21.9072 64.3342 21.3748C63.9175 20.8308 63.7612 20.1364 63.8654 19.2914C62.9048 21.2127 61.7705 22.1734 60.4626 22.1734H59.0043V19.656H60.4626C61.6895 19.656 63.061 18.2787 64.5772 15.5241L64.8376 15.5935C64.8955 17.4917 65.017 18.6202 65.2022 18.9789C65.4684 19.4303 65.914 19.656 66.539 19.656H68.3272V22.1734Z" fill="white"/>
<path d="M82.161 14.6908L81.4666 16.9824L72.3694 20.9928C71.8022 21.2359 71.2409 21.4905 70.6853 21.7567C69.9446 22.0345 69.1518 22.1734 68.3069 22.1734H66.8485V19.656H68.3069C69.6032 19.656 70.6275 19.3204 71.3798 18.6491C70.2455 17.7347 69.6784 16.8667 69.6784 16.0449C69.6784 14.6908 70.3381 13.2729 71.6576 11.7914C73.0349 10.2405 74.4296 9.46506 75.8416 9.46506C76.8833 9.46506 78.2027 10.2289 79.7999 11.7567L79.4874 12.0171C78.7235 11.6468 77.977 11.4616 77.2478 11.4616C76.3566 11.4616 75.1992 11.7104 73.7756 12.2081C72.2594 12.7521 71.5013 13.2382 71.5013 13.6664C71.5013 14.1873 71.9411 14.847 72.8208 15.6456C73.7814 16.5137 74.69 16.9477 75.5465 16.9477C76.3798 16.9477 77.4099 16.6873 78.6367 16.1664L82.161 14.6908Z" fill="white"/>
</svg>
