<svg width="10" height="18" viewBox="0 0 10 18" fill="none" xmlns="http://www.w3.org/2000/svg">
<path d="M1.81927 9L9.53453 16.7155C9.68203 16.8628 9.75486 17.0391 9.75303 17.2443C9.75103 17.4494 9.67628 17.6257 9.52878 17.773C9.38144 17.9205 9.20519 17.9943 9.00003 17.9943C8.79486 17.9943 8.61861 17.9205 8.47127 17.773L0.828775 10.1365C0.667275 9.975 0.549359 9.79492 0.475025 9.59625C0.400692 9.39742 0.363525 9.19867 0.363525 9C0.363525 8.80133 0.400692 8.60258 0.475025 8.40375C0.549359 8.20508 0.667275 8.025 0.828775 7.8635L8.47127 0.22125C8.61861 0.0737498 8.79586 0.00100034 9.00303 0.00300034C9.21002 0.00483367 9.38719 0.0795009 9.53453 0.227001C9.68203 0.374334 9.75577 0.550583 9.75577 0.75575C9.75577 0.960917 9.68203 1.13717 9.53453 1.2845L1.81927 9Z" fill="black"/>
</svg>
