<svg width="31" height="30" viewBox="0 0 31 30" fill="none" xmlns="http://www.w3.org/2000/svg">
<path d="M6.17969 6.57227C8.04167 6.57227 9.15495 6.38997 9.51953 6.02539C9.51953 5.9082 9.53255 5.81055 9.55859 5.73242C9.58464 5.6543 9.59766 5.57617 9.59766 5.49805C9.55859 5.14648 9.51953 4.82096 9.48047 4.52148C9.45443 4.22201 9.38281 3.92253 9.26562 3.62305C9.17448 3.45378 9.03776 3.36914 8.85547 3.36914L8.19141 3.34961C6.75911 3.34961 5.30078 3.99414 3.81641 5.2832C3.49089 5.55664 3.3151 5.82357 3.28906 6.08398C3.30208 6.3444 3.59505 6.49414 4.16797 6.5332L4.55859 6.51367C4.70182 6.51367 4.89062 6.52669 5.125 6.55273C5.3724 6.56576 5.67188 6.57227 6.02344 6.57227H6.17969ZM15.7109 17.959C14.1615 17.959 13.0872 17.679 12.4883 17.1191C11.5378 16.429 10.8151 15.3027 10.3203 13.7402C10.125 13.0892 9.98828 12.3405 9.91016 11.4941C9.84505 10.9082 9.79948 10.4395 9.77344 10.0879C9.7474 9.73633 9.73438 9.48893 9.73438 9.3457C9.31771 9.3457 8.16536 9.44336 6.27734 9.63867H5.16406C4.09635 9.62565 3.22396 9.4043 2.54688 8.97461C1.90885 8.51888 1.4401 7.91992 1.14062 7.17773C1.0625 6.98242 1.01693 6.81315 1.00391 6.66992C0.990885 6.51367 0.984375 6.37044 0.984375 6.24023C0.984375 5.12044 1.47917 4.00716 2.46875 2.90039C2.72917 2.62695 2.98958 2.39258 3.25 2.19727C3.52344 1.98893 3.78385 1.80664 4.03125 1.65039C4.33073 1.42904 4.65625 1.24674 5.00781 1.10352C5.35938 0.947266 5.74349 0.804036 6.16016 0.673828C6.65495 0.465495 7.11719 0.328776 7.54688 0.263672C7.97656 0.198568 8.38021 0.166016 8.75781 0.166016L9.40234 0.146484C9.66276 0.146484 9.84505 0.198568 9.94922 0.302734C10.3659 0.524089 10.75 1.03841 11.1016 1.8457C11.3099 2.34049 11.4727 2.94596 11.5898 3.66211C11.7201 4.37826 11.7852 5.16602 11.7852 6.02539L11.7656 9.3457C11.7656 11.1426 12.1562 12.5488 12.9375 13.5645C13.5495 14.2676 14.2331 14.6191 14.9883 14.6191H15.7109C16.362 15.179 16.6875 15.7324 16.6875 16.2793C16.6875 16.8392 16.362 17.3991 15.7109 17.959Z" fill="white"/>
<path d="M25.0469 29.8535C24.7995 29.8535 24.513 29.7298 24.1875 29.4824C23.875 29.235 23.6016 28.9355 23.3672 28.584C23.1328 28.2324 23.0156 27.9199 23.0156 27.6465C23.0156 27.1517 23.2044 26.5397 23.582 25.8105C23.9727 25.0944 24.3828 24.7363 24.8125 24.7363C25.2422 24.7363 25.6589 25.0553 26.0625 25.6934C26.4792 26.3444 26.6875 26.8717 26.6875 27.2754C26.6875 27.6139 26.5052 28.1283 26.1406 28.8184C25.776 29.5085 25.4115 29.8535 25.0469 29.8535Z" fill="white"/>
<path d="M22.6445 13.3887C23.6211 13.1934 24.4154 12.9915 25.0273 12.7832C26.8242 12.1452 27.7227 11.5527 27.7227 11.0059C27.7227 10.5241 27.4232 9.86654 26.8242 9.0332C25.9648 7.66602 25.1445 6.68945 24.3633 6.10352C23.9336 5.81706 23.582 5.67383 23.3086 5.67383C22.8268 5.67383 22.5859 6.07747 22.5859 6.88477C22.5078 7.67904 22.4688 8.5319 22.4688 9.44336L22.4102 9.99023C22.4102 11.7741 22.4883 12.9069 22.6445 13.3887ZM23.0547 21.2012C22.9245 21.2012 22.7357 21.0775 22.4883 20.8301C21.707 20.14 21.1016 18.9355 20.6719 17.2168L17.8008 17.7441C16.9805 17.8874 16.2513 17.959 15.6133 17.959C15.3398 17.946 15.099 17.7832 14.8906 17.4707C14.6823 17.1452 14.5781 16.748 14.5781 16.2793C14.5781 15.8236 14.6888 15.4395 14.9102 15.127C15.1185 14.8014 15.3659 14.6322 15.6523 14.6191V14.6387C16.8503 14.6257 18.4062 14.3652 20.3203 13.8574C20.2682 13.1803 20.2422 11.9694 20.2422 10.2246C20.2422 4.89909 21.1276 2.23633 22.8984 2.23633C23.9792 2.23633 25.3464 3.14779 27 4.9707C27.7031 5.83008 28.3607 6.80664 28.9727 7.90039C29.7669 9.20247 30.1641 10.3158 30.1641 11.2402V11.5332C30.1641 12.3275 29.8841 13.0827 29.3242 13.7988C28.6862 14.4368 27.9701 14.9577 27.1758 15.3613C26.4727 15.7129 25.457 16.0449 24.1289 16.3574C23.9857 16.4095 23.4779 16.5397 22.6055 16.748C22.6055 16.9043 22.6315 17.1191 22.6836 17.3926C22.7357 17.666 22.8984 18.4863 23.1719 19.8535C23.25 20.2311 23.2891 20.5241 23.2891 20.7324C23.2891 21.0449 23.2109 21.2012 23.0547 21.2012Z" fill="white"/>
</svg>
