<svg width="31" height="20" viewBox="0 0 31 20" fill="none" xmlns="http://www.w3.org/2000/svg">
<path d="M12.6968 14.0714H9.81488C8.5533 14.0714 7.68525 12.5552 7.21071 9.52279L5.97807 10.686C5.35307 11.1837 4.72807 11.4325 4.10307 11.4325C3.24659 11.4325 2.4827 11.2994 1.8114 11.0332C1.14011 10.7554 0.804459 10.4545 0.804459 10.1304C0.804459 9.91052 1.11696 9.14084 1.74196 7.8214C2.39011 6.45566 3.87738 5.18251 6.20376 4.00195V3.65473C6.20376 2.7751 6.48733 1.79709 7.05446 0.720703L8.32182 8.37695C8.65747 10.495 9.15515 11.554 9.81488 11.554H12.6968V14.0714ZM7.05446 8.23807L6.53363 5.30404C4.86696 5.87117 3.64589 6.8376 2.87043 8.20334C3.5533 8.49269 4.47344 8.63737 5.63085 8.63737C6.09381 8.63737 6.56835 8.50427 7.05446 8.23807Z" fill="white"/>
<path d="M30.5777 7.73459L29.8485 9.97418H28.9805C28.4249 9.97418 27.7015 9.93945 26.8103 9.87001C25.9307 9.80056 25.271 9.76584 24.8312 9.76584C23.2108 9.76584 21.5846 10.142 19.9527 10.8943C18.6911 11.5656 17.4237 12.2485 16.1506 12.9429C14.7964 13.6952 13.6459 14.0714 12.6968 14.0714H11.2374V11.554H12.6968C13.9005 11.554 15.4214 11.2068 17.2617 10.5124C19.5534 9.64431 20.8844 9.16978 21.2548 9.08876C20.8844 9.00774 19.9643 8.64316 18.4943 7.99501C17.2791 7.45103 16.2663 7.17904 15.4562 7.17904C14.7849 7.17904 13.9342 7.33529 12.9041 7.64779L12.7652 7.69987C13.4596 5.48922 14.7328 4.3839 16.5846 4.3839C17.4064 4.3839 18.9399 4.95103 21.1853 6.08529C23.3612 7.18482 25.9249 7.73459 28.8763 7.73459H30.5777ZM25.6992 17.0401L24.4145 19.2797L22.3312 17.9256L23.6506 15.6686L25.6992 17.0401Z" fill="white"/>
</svg>
