<svg width="64" height="42" viewBox="0 0 64 42" fill="none" xmlns="http://www.w3.org/2000/svg">
<path d="M8.26172 28.5879H7.79297C3.71745 28.5879 1.23698 27.3704 0.351562 24.9355C0.117188 24.2324 0 23.4577 0 22.6113C0 21.5827 0.15625 20.6973 0.46875 19.9551C0.78125 19.1999 0.996094 18.7897 1.11328 18.7246C1.15234 18.6986 1.19141 18.6855 1.23047 18.6855C1.34766 18.6855 1.40625 18.8353 1.40625 19.1348C1.40625 19.265 1.39323 19.4863 1.36719 19.7988C1.36719 20.5671 1.41927 21.2311 1.52344 21.791C1.6276 22.3379 1.82943 22.8392 2.12891 23.2949C2.42839 23.7507 2.87109 24.1283 3.45703 24.4277C4.69401 24.9746 6.22396 25.248 8.04688 25.248C9.34896 25.248 10.6901 25.1178 12.0703 24.8574C13.4505 24.597 14.7135 24.2585 15.8594 23.8418C16.7578 23.4642 17.4674 23.1452 17.9883 22.8848C18.5091 22.6243 18.9974 22.2663 19.4531 21.8105C19.9219 21.3548 20.1562 20.8275 20.1562 20.2285C20.1562 19.89 20.0977 19.6035 19.9805 19.3691C19.8633 19.1217 19.681 18.7832 19.4336 18.3535C19.1992 17.9238 19.0625 17.6048 19.0234 17.3965C18.9974 17.2663 18.9844 17.1361 18.9844 17.0059C18.9844 16.7324 19.043 16.5176 19.1602 16.3613C19.2904 16.1921 19.4596 16.1074 19.668 16.1074C20.0586 16.1074 20.4557 16.3483 20.8594 16.8301C21.276 17.2988 21.6146 17.8978 21.875 18.627C22.1484 19.3561 22.2852 20.0723 22.2852 20.7754C22.2852 21.6608 22.0573 22.4746 21.6016 23.2168C21.1458 24.0111 20.4818 24.7272 19.6094 25.3652C18.75 25.9902 17.8125 26.5176 16.7969 26.9473C15.7161 27.377 14.401 27.748 12.8516 28.0605C11.3021 28.36 9.77214 28.5358 8.26172 28.5879ZM7.22656 10.9316C6.86198 10.9316 6.64714 10.8535 6.58203 10.6973C6.64714 10.4108 6.69271 10.0853 6.71875 9.7207C6.75781 9.35612 6.80339 9.01758 6.85547 8.70508C6.90755 8.37956 7.00521 8.13867 7.14844 7.98242C7.38281 7.76107 8.45052 7.44857 10.3516 7.04492C11.901 6.70638 12.8646 6.53711 13.2422 6.53711C13.3333 6.53711 13.3789 6.63477 13.3789 6.83008C13.3789 7.11654 13.2943 7.55924 13.125 8.1582C12.8385 9.16081 12.5911 9.70768 12.3828 9.79883C12.1875 9.87695 11.7969 10.0007 11.2109 10.1699C9.34896 10.6777 8.02083 10.9316 7.22656 10.9316Z" fill="white"/>
<path d="M37.6758 28.5879H37.207C33.1315 28.5879 30.651 27.3704 29.7656 24.9355C29.5312 24.2324 29.4141 23.4577 29.4141 22.6113C29.4141 21.5827 29.5703 20.6973 29.8828 19.9551C30.1953 19.1999 30.4102 18.7897 30.5273 18.7246C30.5664 18.6986 30.6055 18.6855 30.6445 18.6855C30.7617 18.6855 30.8203 18.8353 30.8203 19.1348C30.8203 19.265 30.8073 19.4863 30.7812 19.7988C30.7812 20.5671 30.8333 21.2311 30.9375 21.791C31.0417 22.3379 31.2435 22.8392 31.543 23.2949C31.8424 23.7507 32.2852 24.1283 32.8711 24.4277C34.1081 24.9746 35.638 25.248 37.4609 25.248C38.763 25.248 40.1042 25.1178 41.4844 24.8574C42.8646 24.597 44.1276 24.2585 45.2734 23.8418C46.1719 23.4642 46.8815 23.1452 47.4023 22.8848C47.9232 22.6243 48.4115 22.2663 48.8672 21.8105C49.3359 21.3548 49.5703 20.8275 49.5703 20.2285C49.5703 19.89 49.5117 19.6035 49.3945 19.3691C49.2773 19.1217 49.0951 18.7832 48.8477 18.3535C48.6133 17.9238 48.4766 17.6048 48.4375 17.3965C48.4115 17.2663 48.3984 17.1361 48.3984 17.0059C48.3984 16.7324 48.457 16.5176 48.5742 16.3613C48.7044 16.1921 48.8737 16.1074 49.082 16.1074C49.4727 16.1074 49.8698 16.3483 50.2734 16.8301C50.6901 17.2988 51.0286 17.8978 51.2891 18.627C51.5625 19.3561 51.6992 20.0723 51.6992 20.7754C51.6992 21.6608 51.4714 22.4746 51.0156 23.2168C50.5599 24.0111 49.8958 24.7272 49.0234 25.3652C48.1641 25.9902 47.2266 26.5176 46.2109 26.9473C45.1302 27.377 43.8151 27.748 42.2656 28.0605C40.7161 28.36 39.1862 28.5358 37.6758 28.5879ZM40.4688 41.0684C40.3255 41.0684 40.1497 41.0163 39.9414 40.9121C39.7461 40.8079 39.5443 40.6712 39.3359 40.502C39.1276 40.3327 38.9323 40.1504 38.75 39.9551C38.5677 39.7598 38.418 39.5645 38.3008 39.3691C38.1966 39.1868 38.138 39.0241 38.125 38.8809C38.138 38.6335 38.2552 38.3145 38.4766 37.9238C38.7109 37.5332 38.9909 37.1751 39.3164 36.8496C39.6419 36.5371 39.9414 36.3809 40.2148 36.3809C40.4622 36.3809 40.7552 36.5176 41.0938 36.791C41.4453 37.0645 41.7513 37.3639 42.0117 37.6895C42.2852 38.028 42.4414 38.3014 42.4805 38.5098C42.4674 38.653 42.3893 38.8613 42.2461 39.1348C42.1159 39.4212 41.9466 39.7077 41.7383 39.9941C41.543 40.2936 41.3346 40.5475 41.1133 40.7559C40.8919 40.9642 40.6771 41.0684 40.4688 41.0684Z" fill="white"/>
<path d="M62.3047 18.1777C62.0182 18.1777 61.8164 17.5853 61.6992 16.4004C61.2956 13.1061 60.9896 10.6191 60.7812 8.93945C60.5729 7.25977 60.4232 5.45638 60.332 3.5293C60.332 2.89128 60.4622 2.29883 60.7227 1.75195C60.9831 1.20508 61.276 0.931641 61.6016 0.931641C61.849 0.931641 62.0833 1.12695 62.3047 1.51758C62.526 1.89518 62.7083 2.49414 62.8516 3.31445C62.9818 4.19987 63.1315 5.74935 63.3008 7.96289C63.4831 10.1764 63.5742 11.9538 63.5742 13.2949C63.5742 13.8027 63.5417 14.4212 63.4766 15.1504C63.4245 15.8796 63.3008 16.5566 63.1055 17.1816C62.9232 17.8066 62.6562 18.1387 62.3047 18.1777Z" fill="white"/>
</svg>
