<svg width="72" height="28" viewBox="0 0 72 28" fill="none" xmlns="http://www.w3.org/2000/svg">
<path d="M25.5035 13.4963C25.5035 15.9963 24.3808 17.7671 22.1354 18.8088C18.2928 20.5912 14.0451 21.4824 9.39236 21.4824C6.40625 21.4824 4.09144 21.0542 2.44792 20.1977C0.815972 19.3412 0 18.1259 0 16.5519C0 15.4523 0.665509 13.8667 1.99653 11.7949L2.5 11.9685C1.77083 13.1375 1.40625 14.0577 1.40625 14.7289C1.40625 15.9442 2.15278 16.8933 3.64583 17.5762C5.15046 18.259 7.2338 18.6005 9.89583 18.6005C13.4838 18.6005 16.9676 18.0739 20.3472 17.0206C23.0208 16.1873 24.3576 15.435 24.3576 14.7637C24.3576 14.5669 24.3113 14.3991 24.2188 14.2602L23.316 12.6803C23.2118 12.4952 23.1597 12.2405 23.1597 11.9164C23.1597 11.6502 23.2639 11.2857 23.4722 10.8227L24.0972 9.41645C25.0347 11.1873 25.5035 12.5472 25.5035 13.4963ZM15.6771 7.35048L14.2708 9.60742L12.1181 7.99284L10.7812 9.86784L8.80208 8.35742L10.1389 6.08312L12.3264 7.71506L13.5069 5.80534L15.6771 7.35048Z" fill="white"/>
<path d="M59.8907 13.4963C59.8907 15.9963 58.768 17.7671 56.5226 18.8088C52.68 20.5912 48.4323 21.4824 43.7796 21.4824C40.7935 21.4824 38.4786 21.0542 36.8351 20.1977C35.2032 19.3412 34.3872 18.1259 34.3872 16.5519C34.3872 15.4523 35.0527 13.8667 36.3837 11.7949L36.8872 11.9685C36.158 13.1375 35.7935 14.0577 35.7935 14.7289C35.7935 15.9442 36.54 16.8933 38.033 17.5762C39.5377 18.259 41.621 18.6005 44.283 18.6005C47.871 18.6005 51.3548 18.0739 54.7344 17.0206C57.408 16.1873 58.7448 15.435 58.7448 14.7637C58.7448 14.5669 58.6985 14.3991 58.606 14.2602L57.7032 12.6803C57.599 12.4952 57.5469 12.2405 57.5469 11.9164C57.5469 11.6502 57.6511 11.2857 57.8594 10.8227L58.4844 9.41645C59.4219 11.1873 59.8907 12.5472 59.8907 13.4963ZM49.9428 25.4928L48.6233 27.7671L46.5921 26.3435L47.8594 24.156L49.9428 25.4928Z" fill="white"/>
<path d="M71.6911 15.406C71.6911 16.6676 71.3265 18.3979 70.5973 20.597L70.1807 20.4755C70.3427 19.3644 70.4237 18.6063 70.4237 18.2012C70.4237 17.1711 70.3427 16.0252 70.1807 14.7637L69.1216 6.70812C68.9943 5.77062 68.9307 5.07038 68.9307 4.60742C68.9307 3.51946 69.3878 2.06113 70.3022 0.232422C70.3253 2.47779 70.4237 4.23705 70.5973 5.5102L71.448 12.3158C71.6101 13.6468 71.6911 14.6769 71.6911 15.406Z" fill="white"/>
</svg>
