<svg width="24" height="28" viewBox="0 0 24 28" fill="none" xmlns="http://www.w3.org/2000/svg">
<path d="M7.31641 27.2715C5.6237 27.2715 4.15885 26.972 2.92188 26.373C1.69792 25.7741 0.864583 24.8366 0.421875 23.5605C0.200521 22.9486 0.0898438 22.1608 0.0898438 21.1973C0.0898438 20.1296 0.330729 18.9967 0.8125 17.7988C1.29427 16.6009 2.01042 15.4486 2.96094 14.3418C3.85938 13.2871 4.85547 12.4342 5.94922 11.7832C7.05599 11.1191 8.14974 10.7871 9.23047 10.7871C10.0247 10.7871 10.6888 10.9889 11.2227 11.3926C11.6654 11.7181 12.0039 12.1413 12.2383 12.6621C12.4727 13.1829 12.5898 13.8991 12.5898 14.8105C12.5898 15.5007 12.401 16.2559 12.0234 17.0762C11.6458 17.8965 11.1966 18.5801 10.6758 19.127C10.2852 19.5436 9.88802 19.8496 9.48438 20.0449C9.08073 20.2402 8.70964 20.3379 8.37109 20.3379C8.00651 20.3379 7.71354 20.2402 7.49219 20.0449C7.28385 19.8496 7.17969 19.5957 7.17969 19.2832C7.17969 18.9186 7.32292 18.5215 7.60938 18.0918C7.90885 17.6491 8.35156 17.2324 8.9375 16.8418C9.64062 16.36 10.0703 15.9303 10.2266 15.5527L10.2656 15.2988C10.2656 14.6738 9.8099 14.3548 8.89844 14.3418C8.16927 14.3418 7.38151 14.6022 6.53516 15.123C5.70182 15.6309 4.95312 16.2884 4.28906 17.0957C3.74219 17.7467 3.31901 18.4694 3.01953 19.2637C2.73307 20.0579 2.58984 20.7741 2.58984 21.4121C2.58984 22.0501 3.01953 22.6165 3.87891 23.1113C4.7513 23.6061 5.85807 23.8535 7.19922 23.8535C8.07161 23.8535 9.03516 23.7559 10.0898 23.5605C11.1445 23.3652 12.2969 23.0788 13.5469 22.7012C15.1224 22.0762 16.4245 21.347 17.4531 20.5137C18.4948 19.6673 19.237 18.9121 19.6797 18.248C20.4089 17.0501 20.7734 15.5592 20.7734 13.7754C20.7734 11.653 20.5065 9.06185 19.9727 6.00195C19.8945 5.5332 19.8099 5.02539 19.7188 4.47852C19.6406 3.91862 19.6016 3.42383 19.6016 2.99414C19.6016 2.39518 19.6862 1.86784 19.8555 1.41211C20.0378 0.95638 20.2852 0.728516 20.5977 0.728516C20.8451 0.728516 21.0599 0.884766 21.2422 1.19727C21.4375 1.49674 21.6393 2.11523 21.8477 3.05273C22.069 3.97721 22.3164 5.36393 22.5898 7.21289C22.9023 9.99935 23.0586 12.265 23.0586 14.0098C23.0586 17.1087 22.2253 19.7064 20.5586 21.8027C18.9049 23.8861 16.3008 25.4421 12.7461 26.4707C10.6497 27.0046 8.83984 27.2715 7.31641 27.2715Z" fill="black"/>
</svg>
