<svg width="19" height="24" viewBox="0 0 19 24" fill="none" xmlns="http://www.w3.org/2000/svg">
<path d="M11.2666 11.7527C11.2666 12.5629 10.9136 13.3441 10.2076 14.0965C9.42053 14.9761 8.4946 15.4159 7.42978 15.4159C6.67747 15.4159 5.7284 15.0455 4.58256 14.3048C7.58025 14.0502 9.07909 13.6277 9.07909 13.0374C9.07909 12.7597 8.61613 12.586 7.6902 12.5166C6.67168 12.4587 6.16242 12.0652 6.16242 11.336C6.16242 10.6763 6.52122 9.77355 7.23881 8.62771C8.049 7.34299 8.94599 6.42864 9.92979 5.88466L10.2249 7.89855C8.78974 8.54669 8.07215 9.06753 8.07215 9.46105C8.07215 9.84299 8.4946 10.0571 9.33951 10.1034C10.6242 10.3465 11.2666 10.8962 11.2666 11.7527ZM3.67979 20.3465C4.88349 20.9136 6.81636 21.1566 9.4784 21.0756C10.7747 21.0756 12.9275 20.9657 15.9367 20.7458C16.9668 20.6648 17.4819 20.3117 17.4819 19.6867C17.4819 18.9576 16.9726 16.0178 15.9541 10.8673C14.9471 5.70526 14.4437 2.94484 14.4437 2.58605C14.4437 1.40549 14.7967 0.601092 15.5027 0.172852L17.152 2.49924C16.5617 2.97378 16.2492 3.68558 16.2145 4.63466C16.2029 4.91243 16.5849 6.90896 17.3603 10.6242C18.1474 14.3858 18.5409 17.0189 18.5409 18.5235C18.5409 19.9587 18.2168 21.1566 17.5687 22.1173C16.9205 23.0779 16.1277 23.5814 15.1902 23.6277C12.6208 23.7435 10.9599 23.8071 10.2076 23.8187C9.46682 23.8303 8.4483 23.8303 7.15201 23.8187C3.10108 23.784 1.00039 22.4472 0.849924 19.8083C0.792054 18.7666 1.02354 17.3256 1.54437 15.4854L1.99576 15.5374C1.78742 16.3245 1.70062 17.0247 1.73534 17.6381C1.80479 18.8187 2.45293 19.7215 3.67979 20.3465Z" fill="white"/>
</svg>
