<svg width="32" height="42" viewBox="0 0 32 42" fill="none" xmlns="http://www.w3.org/2000/svg">
<path d="M6.31836 27.2207C5.97982 27.2207 5.64779 27.2012 5.32227 27.1621C4.56706 27.0319 3.90299 26.5436 3.33008 25.6973C2.75716 24.8509 2.34049 23.2689 2.08008 20.9512C1.66341 18.5163 1.05143 12.3509 0.244141 2.45508V2.25977C0.244141 1.77799 0.361328 1.34831 0.595703 0.970703C0.843099 0.580078 1.09701 0.384766 1.35742 0.384766L1.47461 0.404297C1.66992 0.45638 1.83919 0.632161 1.98242 0.931641C2.13867 1.2181 2.29492 1.94076 2.45117 3.09961L3.79883 17.2793C4.15039 20.4043 4.46289 22.2598 4.73633 22.8457C4.95768 23.4056 5.29622 23.7311 5.75195 23.8223C5.93424 23.8613 6.12305 23.8809 6.31836 23.8809C6.9694 24.4408 7.29492 25.0007 7.29492 25.5605C7.29492 26.1204 6.9694 26.6738 6.31836 27.2207Z" fill="black"/>
<path d="M9.79492 41.6152C9.54753 41.6152 9.26107 41.4915 8.93555 41.2441C8.62305 40.9967 8.34961 40.6973 8.11523 40.3457C7.88086 39.9941 7.76367 39.6816 7.76367 39.4082C7.76367 38.9134 7.95247 38.3014 8.33008 37.5723C8.7207 36.8561 9.13086 36.498 9.56055 36.498C9.99023 36.498 10.4069 36.8171 10.8105 37.4551C11.2272 38.1061 11.4355 38.6335 11.4355 39.0371C11.4355 39.3757 11.2533 39.89 10.8887 40.5801C10.5241 41.2702 10.1595 41.6152 9.79492 41.6152Z" fill="black"/>
<path d="M6.45508 27.2207L6.43555 27.2012C6.14909 27.1621 5.90169 26.9928 5.69336 26.6934C5.48503 26.3809 5.38086 25.9902 5.38086 25.5215C5.38086 25.0658 5.49154 24.6751 5.71289 24.3496C5.92122 24.0241 6.17513 23.8613 6.47461 23.8613V23.8809H6.55273V23.9004C7.32096 23.9004 8.10872 23.653 8.91602 23.1582C9.35872 22.9238 9.83398 22.5202 10.3418 21.9473C10.8626 21.3613 11.123 20.86 11.123 20.4434C11.123 20.1048 11.0645 19.7663 10.9473 19.4277C10.8301 19.0892 10.5762 18.5358 10.1855 17.7676C9.95117 17.3249 9.83398 16.9408 9.83398 16.6152C9.83398 16.3939 9.89258 16.1986 10.0098 16.0293C10.153 15.821 10.3353 15.7168 10.5566 15.7168C10.778 15.7168 11.0254 15.8079 11.2988 15.9902C11.8978 16.3678 12.4186 17.1751 12.8613 18.4121C13.0566 19.1803 13.1543 19.8965 13.1543 20.5605C13.1543 21.7194 12.7376 22.8587 11.9043 23.9785C11.084 25.0853 10.127 25.9186 9.0332 26.4785C8.04362 26.9733 7.18424 27.2207 6.45508 27.2207Z" fill="black"/>
<path d="M25.0684 27.2207C24.7298 27.2207 24.3978 27.2012 24.0723 27.1621C23.3171 27.0319 22.653 26.5436 22.0801 25.6973C21.5072 24.8509 21.0905 23.2689 20.8301 20.9512C20.4134 18.5163 19.8014 12.3509 18.9941 2.45508V2.25977C18.9941 1.77799 19.1113 1.34831 19.3457 0.970703C19.5931 0.580078 19.847 0.384766 20.1074 0.384766L20.2246 0.404297C20.4199 0.45638 20.5892 0.632161 20.7324 0.931641C20.8887 1.2181 21.0449 1.94076 21.2012 3.09961L22.5488 17.2793C22.9004 20.4043 23.2129 22.2598 23.4863 22.8457C23.7077 23.4056 24.0462 23.7311 24.502 23.8223C24.6842 23.8613 24.873 23.8809 25.0684 23.8809C25.7194 24.4408 26.0449 25.0007 26.0449 25.5605C26.0449 26.1204 25.7194 26.6738 25.0684 27.2207Z" fill="black"/>
<path d="M28.5449 41.6152C28.2975 41.6152 28.0111 41.4915 27.6855 41.2441C27.373 40.9967 27.0996 40.6973 26.8652 40.3457C26.6309 39.9941 26.5137 39.6816 26.5137 39.4082C26.5137 38.9134 26.7025 38.3014 27.0801 37.5723C27.4707 36.8561 27.8809 36.498 28.3105 36.498C28.7402 36.498 29.1569 36.8171 29.5605 37.4551C29.9772 38.1061 30.1855 38.6335 30.1855 39.0371C30.1855 39.3757 30.0033 39.89 29.6387 40.5801C29.2741 41.2702 28.9095 41.6152 28.5449 41.6152Z" fill="black"/>
<path d="M25.2051 27.2207L25.1855 27.2012C24.8991 27.1621 24.6517 26.9928 24.4434 26.6934C24.235 26.3809 24.1309 25.9902 24.1309 25.5215C24.1309 25.0658 24.2415 24.6751 24.4629 24.3496C24.6712 24.0241 24.9251 23.8613 25.2246 23.8613V23.8809H25.3027V23.9004C26.071 23.9004 26.8587 23.653 27.666 23.1582C28.1087 22.9238 28.584 22.5202 29.0918 21.9473C29.6126 21.3613 29.873 20.86 29.873 20.4434C29.873 20.1048 29.8145 19.7663 29.6973 19.4277C29.5801 19.0892 29.3262 18.5358 28.9355 17.7676C28.7012 17.3249 28.584 16.9408 28.584 16.6152C28.584 16.3939 28.6426 16.1986 28.7598 16.0293C28.903 15.821 29.0853 15.7168 29.3066 15.7168C29.528 15.7168 29.7754 15.8079 30.0488 15.9902C30.6478 16.3678 31.1686 17.1751 31.6113 18.4121C31.8066 19.1803 31.9043 19.8965 31.9043 20.5605C31.9043 21.7194 31.4876 22.8587 30.6543 23.9785C29.834 25.0853 28.877 25.9186 27.7832 26.4785C26.7936 26.9733 25.9342 27.2207 25.2051 27.2207Z" fill="black"/>
</svg>
