<svg width="31" height="30" viewBox="0 0 31 30" fill="none" xmlns="http://www.w3.org/2000/svg">
<path d="M8.49931 21.3543H5.58265C3.24468 21.3543 1.95996 20.0407 1.72848 17.4134C1.60117 16.0245 1.30603 13.3393 0.843063 9.3578C0.426397 5.89715 0.218063 3.98743 0.218063 3.62863C0.218063 3.07308 0.715749 2.19345 1.71112 0.989746L3.03056 16.0418C3.20417 17.9053 4.05487 18.837 5.58265 18.837H8.49931V21.3543Z" fill="white"/>
<path d="M12.545 15.7814C12.545 19.4967 11.2024 21.3543 8.51722 21.3543H7.05888V18.837H8.51722C9.23481 18.837 9.91189 18.6923 10.5485 18.4029C11.2545 18.0904 11.6075 17.7085 11.6075 17.2571C11.6075 17.0372 11.5381 16.8173 11.3992 16.5974L10.4964 15.1391C10.3112 14.8266 10.2186 14.5314 10.2186 14.2536C10.2186 13.9643 10.2996 13.6923 10.4617 13.4377L11.6075 11.7016C12.2325 13.0673 12.545 14.4272 12.545 15.7814ZM13.604 26.7363L12.1804 29.0106L10.1492 27.4654L11.486 25.2432L13.604 26.7363Z" fill="white"/>
<path d="M25.0594 21.3543H22.1427C19.8047 21.3543 18.52 20.0407 18.2885 17.4134C18.1612 16.0245 17.8661 13.3393 17.4031 9.3578C16.9865 5.89715 16.7781 3.98743 16.7781 3.62863C16.7781 3.07308 17.2758 2.19345 18.2712 0.989746L19.5906 16.0418C19.7642 17.9053 20.6149 18.837 22.1427 18.837H25.0594V21.3543Z" fill="white"/>
<path d="M29.1051 15.7814C29.1051 19.4967 27.7625 21.3543 25.0773 21.3543H23.6189V18.837H25.0773C25.7949 18.837 26.472 18.6923 27.1085 18.4029C27.8145 18.0904 28.1676 17.7085 28.1676 17.2571C28.1676 17.0372 28.0981 16.8173 27.9592 16.5974L27.0564 15.1391C26.8713 14.8266 26.7787 14.5314 26.7787 14.2536C26.7787 13.9643 26.8597 13.6923 27.0217 13.4377L28.1676 11.7016C28.7926 13.0673 29.1051 14.4272 29.1051 15.7814ZM30.1641 26.7363L28.7405 29.0106L26.7092 27.4654L28.046 25.2432L30.1641 26.7363Z" fill="white"/>
</svg>
