<svg width="18" height="18" viewBox="0 0 18 18" fill="none" xmlns="http://www.w3.org/2000/svg">
<path d="M5.05825 13.7693C5.30908 13.7693 5.51917 13.6844 5.6885 13.5147C5.85767 13.3451 5.94225 13.1348 5.94225 12.884C5.94225 12.6332 5.85742 12.4231 5.68775 12.2537C5.51808 12.0846 5.30783 12 5.057 12C4.80617 12 4.59617 12.0848 4.427 12.2545C4.25767 12.4242 4.173 12.6344 4.173 12.8853C4.173 13.1361 4.25783 13.3461 4.4275 13.5153C4.59733 13.6846 4.80758 13.7693 5.05825 13.7693ZM5.05825 9.8845C5.30908 9.8845 5.51917 9.79967 5.6885 9.63C5.85767 9.46033 5.94225 9.25008 5.94225 8.99925C5.94225 8.74842 5.85742 8.53842 5.68775 8.36925C5.51808 8.20008 5.30783 8.1155 5.057 8.1155C4.80617 8.1155 4.59617 8.20033 4.427 8.37C4.25767 8.53967 4.173 8.74992 4.173 9.00075C4.173 9.25158 4.25783 9.46158 4.4275 9.63075C4.59733 9.79992 4.80758 9.8845 5.05825 9.8845ZM5.05825 6C5.30908 6 5.51917 5.91517 5.6885 5.7455C5.85767 5.57583 5.94225 5.36558 5.94225 5.11475C5.94225 4.86392 5.85742 4.65392 5.68775 4.48475C5.51808 4.31542 5.30783 4.23075 5.057 4.23075C4.80617 4.23075 4.59617 4.31558 4.427 4.48525C4.25767 4.65492 4.173 4.86517 4.173 5.116C4.173 5.36683 4.25783 5.57692 4.4275 5.74625C4.59733 5.91542 4.80758 6 5.05825 6ZM8.84625 13.6345H13.0385C13.251 13.6345 13.4291 13.5626 13.5727 13.4187C13.7166 13.2751 13.7885 13.0969 13.7885 12.8842C13.7885 12.6718 13.7166 12.4937 13.5727 12.35C13.4291 12.2065 13.251 12.1348 13.0385 12.1348H8.84625C8.63375 12.1348 8.45558 12.2066 8.31175 12.3503C8.16808 12.4941 8.09625 12.6723 8.09625 12.885C8.09625 13.0975 8.16808 13.2756 8.31175 13.4193C8.45558 13.5628 8.63375 13.6345 8.84625 13.6345ZM8.84625 9.75H13.0385C13.251 9.75 13.4291 9.67808 13.5727 9.53425C13.7166 9.39042 13.7885 9.21225 13.7885 8.99975C13.7885 8.78708 13.7166 8.609 13.5727 8.4655C13.4291 8.32183 13.251 8.25 13.0385 8.25H8.84625C8.63375 8.25 8.45558 8.32192 8.31175 8.46575C8.16808 8.60958 8.09625 8.78775 8.09625 9.00025C8.09625 9.21292 8.16808 9.391 8.31175 9.5345C8.45558 9.67817 8.63375 9.75 8.84625 9.75ZM8.84625 5.86525H13.0385C13.251 5.86525 13.4291 5.79342 13.5727 5.64975C13.7166 5.50592 13.7885 5.32767 13.7885 5.115C13.7885 4.9025 13.7166 4.72442 13.5727 4.58075C13.4291 4.43725 13.251 4.3655 13.0385 4.3655H8.84625C8.63375 4.3655 8.45558 4.43742 8.31175 4.58125C8.16808 4.72492 8.09625 4.90308 8.09625 5.11575C8.09625 5.32825 8.16808 5.50633 8.31175 5.65C8.45558 5.7935 8.63375 5.86525 8.84625 5.86525ZM2.30775 17.5C1.80258 17.5 1.375 17.325 1.025 16.975C0.675 16.625 0.5 16.1974 0.5 15.6923V2.30775C0.5 1.80258 0.675 1.375 1.025 1.025C1.375 0.675 1.80258 0.5 2.30775 0.5H15.6923C16.1974 0.5 16.625 0.675 16.975 1.025C17.325 1.375 17.5 1.80258 17.5 2.30775V15.6923C17.5 16.1974 17.325 16.625 16.975 16.975C16.625 17.325 16.1974 17.5 15.6923 17.5H2.30775ZM2.30775 16H15.6923C15.7692 16 15.8398 15.9679 15.9038 15.9038C15.9679 15.8398 16 15.7692 16 15.6923V2.30775C16 2.23075 15.9679 2.16025 15.9038 2.09625C15.8398 2.03208 15.7692 2 15.6923 2H2.30775C2.23075 2 2.16025 2.03208 2.09625 2.09625C2.03208 2.16025 2 2.23075 2 2.30775V15.6923C2 15.7692 2.03208 15.8398 2.09625 15.9038C2.16025 15.9679 2.23075 16 2.30775 16Z" fill="black"/>
</svg>
