<svg width="44" height="44" viewBox="0 0 44 44" fill="none" xmlns="http://www.w3.org/2000/svg">
<rect width="44" height="44" rx="10" fill="#FEE8E7"/>
<path d="M20.0405 14C20.1038 14.003 20.1661 14.0056 20.2266 14.0265C20.2385 14.0305 20.2502 14.0351 20.2616 14.0403C20.2731 14.0454 20.2843 14.0512 20.2951 14.0575C20.306 14.0638 20.3165 14.0707 20.3267 14.0781C20.3368 14.0854 20.3466 14.0933 20.356 14.1017C20.3653 14.1101 20.3743 14.1189 20.3828 14.1282C20.3912 14.1375 20.3992 14.1472 20.4067 14.1572C20.4142 14.1673 20.4211 14.1778 20.4275 14.1886C20.434 14.1994 20.4398 14.2105 20.4451 14.2219C20.6109 14.5708 20.3471 15.1325 20.1816 15.4366C19.917 15.9229 19.566 16.3686 19.2376 16.813L18.3762 18.0017C17.0852 19.752 15.8361 21.5317 14.6289 23.3408C14.2843 23.8509 13.9515 24.3686 13.6307 24.894C13.2717 25.4736 12.9157 26.0605 12.6766 26.7021C12.5787 26.9647 12.4296 27.3821 12.565 27.655C12.7058 27.9387 13.1329 27.9888 13.4128 28.0076C15.0635 28.1184 17.7909 27.1487 19.3886 26.5756C20.0083 26.3533 20.6258 26.091 21.2675 25.94C21.5677 25.8694 21.9205 25.8019 22.2182 25.9194C22.5894 26.066 22.6465 26.4395 22.7341 26.7794C22.7821 26.9653 22.8339 27.1511 22.9082 27.3284C23.0526 27.6732 23.2864 27.9744 23.641 28.1171C23.83 28.1931 24.0396 28.228 24.243 28.2253C24.9924 28.2155 26.4348 27.7531 27.1382 27.4511C28.5961 26.8252 29.9597 25.8273 30.7729 24.4401C30.9793 24.0878 31.1331 23.7066 31.2844 23.3285C30.6177 23.3611 29.9754 23.4343 29.3077 23.3518C28.7949 23.2885 28.3059 23.1471 27.9779 22.7214C27.7458 22.4201 27.6294 22.042 27.6787 21.663C27.7776 20.9022 28.3216 20.3651 28.8995 19.9188C29.7748 19.2428 30.8348 18.5882 31.9909 18.7434C32.5475 18.8182 33.017 19.1377 33.3539 19.5768C33.5119 19.7811 33.6347 20.0141 33.7314 20.253C34.2845 21.6192 33.898 23.2235 33.3425 24.5224C33.1745 24.9149 32.9695 25.2804 32.7451 25.643C32.4746 26.08 32.1906 26.4931 31.8458 26.8752C30.7064 28.1378 29.017 29.07 27.4529 29.6951C26.3684 30.1285 24.3322 30.6964 23.1632 30.5497C22.9867 30.5275 22.8166 30.4761 22.6539 30.4051C21.9406 30.094 21.3031 29.3051 21.0244 28.5842C20.6932 28.7722 20.1773 28.9306 19.8068 29.0584C18.5175 29.5032 17.2105 29.9268 15.8593 30.1362C14.7161 30.3135 12.8185 30.357 11.6962 30.0752C11.359 29.9905 11.0235 29.8617 10.7425 29.6533C10.7182 29.6354 10.6943 29.6169 10.6709 29.5977C10.6475 29.5786 10.6246 29.5589 10.6022 29.5386C10.5797 29.5183 10.5578 29.4975 10.5365 29.4762C10.5151 29.4547 10.4943 29.4328 10.474 29.4104C10.4537 29.388 10.434 29.3651 10.4149 29.3417C10.3958 29.3183 10.3772 29.2944 10.3593 29.27C10.3414 29.2457 10.3241 29.2209 10.3074 29.1957C10.2907 29.1705 10.2747 29.1449 10.2593 29.1189C10.2439 29.0928 10.2292 29.0664 10.2151 29.0397C10.201 29.0129 10.1876 28.9858 10.1749 28.9584C10.1622 28.931 10.1502 28.9033 10.1389 28.8752C10.1275 28.8472 10.1169 28.8189 10.107 28.7903C10.0971 28.7618 10.088 28.733 10.0795 28.7039C10.0711 28.6749 10.0633 28.6457 10.0563 28.6163C10.0494 28.5869 10.0431 28.5573 10.0376 28.5275C10.0321 28.4978 10.0274 28.468 10.0234 28.438C9.9682 28.0388 10.0163 27.6135 10.1095 27.2233C10.3346 26.2816 10.7924 25.3721 11.2396 24.5197C11.734 23.5819 12.2674 22.6669 12.8396 21.7745C13.4118 20.882 14.0208 20.0155 14.6667 19.1748C15.5306 18.0345 18.691 14.1854 20.0405 14Z" fill="#F54238"/>
</svg>
