<svg width="13" height="15" viewBox="0 0 13 15" fill="none" xmlns="http://www.w3.org/2000/svg">
<path d="M12.3873 12.9804L8.45596 14.4216H7.02459C5.03766 14.4216 3.49191 13.9706 2.38733 13.0687C1.28276 12.1667 0.730469 10.9053 0.730469 9.28434C0.730469 6.51964 2.19452 4.25493 5.12263 2.49022C4.19452 2.29415 3.4821 2.19611 2.98537 2.19611C2.52785 2.19611 2.01478 2.27127 1.44616 2.4216L1.69125 1.23532C2.46249 0.823558 3.14877 0.617676 3.75008 0.617676C4.05727 0.617676 4.66838 0.702643 5.58341 0.872578C6.49844 1.03598 7.52132 1.11768 8.65204 1.11768C9.32524 1.11768 9.9821 1.0948 10.6226 1.04905L10.0246 2.24513C7.41674 2.45428 5.31217 3.14382 3.71086 4.31375C2.16838 5.45754 1.39714 6.81049 1.39714 8.37258C1.39714 9.83009 2.03112 10.9608 3.2991 11.7647C4.57361 12.5752 6.35792 12.9804 8.65204 12.9804C9.37099 12.9804 10.5932 12.8987 12.3187 12.7353L12.3873 12.9804Z" fill="black"/>
</svg>
