<svg width="14" height="20" viewBox="0 0 14 20" fill="none" xmlns="http://www.w3.org/2000/svg">
<path d="M13.7015 6.6148C13.7015 9.94813 12.8855 12.9574 11.2536 15.6426C9.62162 18.3278 7.78713 19.6704 5.75009 19.6704C4.46537 19.6704 2.77556 19.1148 0.680649 18.0037L1.06259 17.6738C1.9075 18.0095 2.74083 18.1773 3.56259 18.1773C5.54176 18.1773 7.43412 17.3208 9.23968 15.6079C10.2582 14.6356 11.0857 13.5014 11.7223 12.2051C12.3473 10.9435 12.6598 9.79188 12.6598 8.75022C12.6598 8.11364 12.5209 7.56387 12.2431 7.10091C11.5603 8.03841 10.8948 8.50716 10.2466 8.50716C9.5869 8.50716 9.00819 8.25832 8.51051 7.76063C8.0244 7.25137 7.78134 6.64952 7.78134 5.95508C7.78134 5.17961 8.2038 3.90068 9.0487 2.11827C9.61583 0.926143 10.2524 0.330078 10.9584 0.330078C11.6876 0.330078 12.3242 0.960865 12.8681 2.22244C13.4237 3.47244 13.7015 4.93656 13.7015 6.6148ZM11.1668 4.60091C10.9469 3.99906 10.5823 3.69813 10.073 3.69813C9.59847 3.69813 9.3612 3.95276 9.3612 4.46202C9.3612 5.0523 9.61583 5.34744 10.1251 5.34744C10.6228 5.34744 10.97 5.0986 11.1668 4.60091Z" fill="white"/>
</svg>
