<svg width="16" height="18" viewBox="0 0 16 18" fill="none" xmlns="http://www.w3.org/2000/svg">
<path d="M9.77344 5.32812C10.6589 5.32812 11.4336 5.3151 12.0977 5.28906C12.0586 4.84635 11.7982 4.35807 11.3164 3.82422C10.9779 3.55078 10.6458 3.41406 10.3203 3.41406C9.95573 3.41406 9.60417 3.57682 9.26562 3.90234C8.92708 4.21484 8.75781 4.53385 8.75781 4.85938C8.75781 5.10677 8.88802 5.26302 9.14844 5.32812H9.77344ZM5.26172 17.3789C4.36328 17.3789 3.47135 17.2422 2.58594 16.9688C1.70052 16.6953 1.14714 16.2656 0.925781 15.6797L0.90625 15.6406C0.90625 15.5234 1.33594 15.3607 2.19531 15.1523C3.05469 14.944 3.59505 14.8203 3.81641 14.7812C5.04036 14.4948 6.27083 14.1562 7.50781 13.7656C8.74479 13.375 9.79948 12.8802 10.6719 12.2812C11.4401 11.5911 12.013 11.0378 12.3906 10.6211C12.7812 10.2044 13.0547 9.72266 13.2109 9.17578C13.224 9.1237 13.2305 9.07161 13.2305 9.01953C13.2305 8.8763 13.1589 8.66797 13.0156 8.39453C12.8984 8.19922 12.6771 8.06901 12.3516 8.00391C12.0391 7.92578 11.6289 7.88672 11.1211 7.88672L9.96875 7.90625C9.27865 7.90625 8.70573 7.86719 8.25 7.78906C7.80729 7.69792 7.41016 7.49609 7.05859 7.18359C6.72005 6.85807 6.49219 6.3763 6.375 5.73828C6.34896 5.52995 6.33594 5.3737 6.33594 5.26953C6.33594 4.57943 6.53776 3.86979 6.94141 3.14062C7.34505 2.41146 7.87891 1.8125 8.54297 1.34375C9.20703 0.861979 9.90365 0.621094 10.6328 0.621094C11.2969 0.621094 11.9349 0.86849 12.5469 1.36328C13.1589 1.85807 13.6732 2.52865 14.0898 3.375C14.4805 4.10417 14.7669 4.94401 14.9492 5.89453C15.1445 6.83203 15.2422 7.69141 15.2422 8.47266C15.099 9.85286 14.7474 11.0703 14.1875 12.125C13.6276 13.1797 12.8008 14.1042 11.707 14.8984C9.42839 16.5521 7.27995 17.3789 5.26172 17.3789Z" fill="black"/>
</svg>
