<svg width="24" height="24" viewBox="0 0 24 24" fill="none" xmlns="http://www.w3.org/2000/svg">
<path d="M13.7887 16.3679C14.099 16.1684 14.4712 16.0733 14.8396 16.0922C15.3319 16.1168 16.149 16.4307 16.3217 16.9486C16.4053 17.2071 16.3785 17.4873 16.271 17.7343C15.6592 19.3164 13.1832 21.558 11.2967 21.512C9.71367 21.4814 8.77593 20.6136 7.7644 19.6301C8.53375 19.7032 9.09308 19.6879 9.80928 19.5887C11.096 22.2786 13.466 20.8184 14.0521 18.2116C14.1404 17.9813 13.3231 17.6545 13.2814 17.1241C13.2812 17.0675 13.2812 17.0111 13.2817 16.9551C13.3286 16.6885 13.564 16.4953 13.7887 16.3679Z" fill="black"/>
<path d="M13.5257 12.1679C13.5172 12.7761 13.1164 13.3408 12.5795 13.6068C12.0051 13.8764 11.2755 13.811 10.7921 13.388C10.7136 13.3078 10.6339 13.2282 10.5539 13.1495C10.3409 12.9279 10.2201 12.6207 10.1849 12.3174C10.18 12.3055 10.1703 12.2821 10.1653 12.2703C10.1934 12.0835 10.1463 11.8861 10.2149 11.7063C10.2755 11.4548 10.3849 11.2066 10.5689 11.0205C10.6394 10.9512 10.7089 10.8826 10.7776 10.8121C10.9241 10.6432 11.1408 10.5634 11.3433 10.4839C11.5689 10.4038 11.8082 10.4245 12.0421 10.412C12.3271 10.4595 12.617 10.5519 12.8491 10.7329C13.2017 11.0031 13.4787 11.4196 13.5067 11.8685C13.5309 11.9139 13.5257 11.9671 13.5202 12.0166C13.5074 12.0668 13.5211 12.1176 13.5257 12.1679Z" fill="black"/>
<path d="M7.44851 10.4388C7.37022 10.7994 7.17419 11.1299 6.90048 11.377C6.53492 11.7078 5.73524 12.0636 5.2469 11.8197C5.00503 11.696 4.82587 11.4788 4.72733 11.228C4.04131 9.67677 4.2073 6.34072 5.57376 5.03904C6.71477 3.94125 7.99142 3.89164 9.40199 3.87169C8.80624 4.36423 8.42164 4.77056 7.98532 5.34713C5.17366 4.35512 4.53017 7.06364 5.95882 9.32141C6.05924 9.54667 6.86818 9.19982 7.27266 9.54539C7.31278 9.5853 7.35275 9.62513 7.39197 9.6651C7.54727 9.88668 7.51739 10.1898 7.44851 10.4388Z" fill="black"/>
<path d="M9.90249 7.81171C9.59227 8.01122 9.22001 8.10639 8.85167 8.08749C8.35935 8.06287 7.54227 7.74892 7.36951 7.23108C7.28595 6.97261 7.31275 6.69238 7.42025 6.44536C8.03204 4.86324 10.508 2.62173 12.3945 2.66766C13.9776 2.6983 14.9153 3.56608 15.9268 4.54958C15.1575 4.47648 14.5982 4.49176 13.882 4.59092C12.5952 1.90106 10.2252 3.36122 9.63917 5.96803C9.55086 6.19841 10.3682 6.52517 10.4099 7.05558C10.41 7.1122 10.41 7.16859 10.4096 7.2246C10.3627 7.49113 10.1273 7.68439 9.90249 7.81171Z" fill="black"/>
<path d="M13.4965 7.69078C13.136 7.61248 12.8056 7.4165 12.5585 7.14268C12.2277 6.77707 11.872 5.97728 12.1159 5.48888C12.2395 5.24705 12.4566 5.06778 12.7074 4.96923C14.2584 4.28312 17.594 4.44913 18.8955 5.81578C19.9932 6.95694 20.0428 8.23376 20.0627 9.64453C19.5703 9.04869 19.164 8.66404 18.5876 8.22767C19.5794 5.41554 16.8712 4.77205 14.6138 6.20089C14.3885 6.3014 14.7353 7.11045 14.3898 7.51498C14.3499 7.55511 14.3101 7.59501 14.2701 7.63424C14.0485 7.78948 13.7455 7.75967 13.4965 7.69078Z" fill="black"/>
<path d="M16.1231 10.1467C15.9235 9.83645 15.8284 9.46415 15.8473 9.09576C15.8719 8.60344 16.1859 7.78625 16.7036 7.61339C16.9621 7.52982 17.2422 7.55662 17.4892 7.66421C19.0711 8.27609 21.3124 10.7523 21.2664 12.6391C21.2358 14.2223 20.3681 15.1602 19.3848 16.1719C19.4578 15.4024 19.4426 14.843 19.3434 14.1267C22.0329 12.8398 20.573 10.4695 17.9665 9.88336C17.7362 9.79512 17.4094 10.6125 16.8791 10.6542C16.8225 10.6543 16.7661 10.6543 16.7101 10.6539C16.4436 10.607 16.2504 10.3715 16.1231 10.1467Z" fill="black"/>
<path d="M16.2438 13.7419C16.3221 13.3814 16.5181 13.0509 16.7918 12.8038C17.1574 12.473 17.957 12.1173 18.4454 12.3611C18.6872 12.4848 18.8664 12.7019 18.9649 12.9527C19.651 14.504 19.485 17.8401 18.1185 19.1417C16.9775 20.2395 15.7009 20.2891 14.2903 20.3091C14.886 19.8166 15.2706 19.4102 15.707 18.8337C18.5186 19.8257 19.1621 17.1171 17.7335 14.8594C17.633 14.6341 16.8241 14.9809 16.4196 14.6354C16.3795 14.5955 16.3395 14.5556 16.3003 14.5157C16.145 14.2941 16.1749 13.991 16.2438 13.7419Z" fill="black"/>
<path d="M5.95649 12.1555C5.95664 12.0138 5.95325 11.8719 5.96853 11.7313C6.30669 12.3563 6.70958 12.9441 7.05112 13.5665C6.89559 13.5286 6.74436 13.4761 6.5883 13.4404L6.56813 13.4376C6.5664 15.0177 6.56692 16.5973 6.56783 18.1772C6.5064 18.3698 6.59899 18.2676 6.6288 18.2211C6.84199 17.8842 7.08341 17.5644 7.35306 17.2709C7.37986 17.2465 7.42473 17.2333 7.43 17.1925C7.47336 17.1276 7.5335 17.0549 7.60457 17.0186C7.64966 17.0192 7.6675 16.9748 7.68271 16.94C8.18512 16.4802 8.82296 16.1329 9.51386 16.092C9.63296 16.0916 9.75257 16.092 9.87212 16.0918C10.6403 16.139 11.3826 16.5066 11.8833 17.0884C11.8921 17.1513 11.97 17.1625 11.9814 17.2253C12.157 17.4268 12.2914 17.6688 12.411 17.909C12.6663 18.4474 12.8195 19.0263 12.9286 19.6104C12.9255 19.6195 12.9193 19.6375 12.9164 19.6467C12.2524 19.6546 11.5883 19.6464 10.9241 19.6506C10.8314 19.6447 10.7367 19.6613 10.646 19.6384C10.8669 19.5144 10.995 19.2239 10.8956 18.9827C10.7986 18.7293 10.7 18.47 10.5279 18.2572C10.3076 17.8675 9.90019 17.5949 9.4565 17.5383C9.35533 17.5229 9.24994 17.5099 9.14967 17.536C8.3892 17.6341 7.69934 18.05 7.13972 18.5392C7.07739 18.563 7.04615 18.6289 6.98901 18.6595C6.88099 18.7262 6.76732 18.8171 6.71176 18.9342C6.4379 19.2399 6.18187 19.5664 5.94926 19.9062C5.93707 19.8185 5.94136 19.7298 5.92284 19.6436C5.90793 18.9675 5.91177 18.2894 5.92088 17.6129C5.9522 17.2757 5.92931 16.9356 5.93579 16.5971C5.94015 16.3396 5.92578 16.081 5.94369 15.8245C5.97034 15.7267 5.9522 15.6231 5.95754 15.5237C5.95559 14.401 5.95799 13.2781 5.95649 12.1555Z" fill="black"/>
</svg>
