<svg width="11" height="17" viewBox="0 0 11 17" fill="none" xmlns="http://www.w3.org/2000/svg">
<path d="M3.96753 4.65247L4.63293 3.59961C4.88562 3.17847 5.02881 2.88647 5.0625 2.72363L5.04565 2.6731C5.04565 2.64502 5.05127 2.62256 5.0625 2.60571V2.58044C4.7312 2.13684 4.20337 1.91504 3.479 1.91504C3.02417 1.91504 2.54126 2.047 2.03027 2.31091C1.99097 2.31653 1.96008 2.33899 1.93762 2.3783C1.92078 2.4176 1.91235 2.4541 1.91235 2.48779C1.91797 2.64502 2.48511 3.24585 3.61377 4.29028L3.96753 4.65247ZM6.54492 16.217C5.52295 16.2058 4.60767 16.0542 3.79907 15.7622C1.76636 14.948 0.75 13.62 0.75 11.7782C0.75 11.6996 0.755615 11.5255 0.766846 11.256C0.778076 10.9921 0.845459 10.6187 0.968994 10.1357C1.18237 9.32715 1.47998 8.58313 1.86182 7.90369C2.08081 7.51624 2.31946 7.13159 2.57776 6.74976C2.95398 6.16016 3.17859 5.79797 3.25159 5.66321C3.18982 5.53967 2.60303 4.97815 1.49121 3.97864C1.03638 3.56311 0.80896 3.12231 0.80896 2.65625C0.80896 2.56641 0.814575 2.47656 0.825806 2.38672C0.837036 2.15088 0.999878 1.85889 1.31433 1.51074C1.47156 1.33667 1.64563 1.19348 1.83655 1.08118C2.37561 0.749878 2.97925 0.561768 3.64746 0.516846C3.698 0.505615 3.75134 0.5 3.8075 0.5C4.29602 0.5 4.69751 0.57019 5.01196 0.710571C5.48926 0.929565 5.7981 1.24683 5.93848 1.66235C6.03394 1.99365 6.08167 2.28284 6.08167 2.52991C6.08167 3.16443 5.81213 3.87756 5.27307 4.66931C5.13269 4.86584 4.97266 5.09888 4.79297 5.36841C4.37744 5.9917 3.9563 6.59253 3.52954 7.1709C3.09155 7.77734 2.75183 8.32764 2.51038 8.82178C2.224 9.30469 2.005 9.81287 1.85339 10.3463C1.73547 10.7506 1.67651 11.1353 1.67651 11.5002C1.67651 11.9495 1.76355 12.3538 1.93762 12.7131C2.11731 13.0725 2.40088 13.4066 2.78833 13.7155C3.15332 14.0131 3.61938 14.2629 4.18652 14.4651C4.98389 14.7515 5.89917 14.8947 6.93237 14.8947C7.40405 14.889 8.30811 14.8357 9.64453 14.7346C9.87476 14.7065 10.2061 14.6925 10.6384 14.6925C10.7002 14.6925 10.7311 14.7318 10.7311 14.8104C10.7311 14.8329 10.7255 14.8525 10.7142 14.8694C10.0909 15.5095 9.11108 15.925 7.77466 16.116C7.33105 16.1833 6.92114 16.217 6.54492 16.217Z" fill="black"/>
</svg>
